<?xml version="1.0" encoding="UTF-8"?>
<svg id="Layer_2" data-name="Layer 2" xmlns="http://www.w3.org/2000/svg" viewBox="0 0 153.19 153.23">
  <defs>
    <style>
      .cls-1 {
        fill: #cbe9fa;
      }

      .cls-2 {
        fill: #2b2b2b;
      }
    </style>
  </defs>
  <g id="Layer_1-2" data-name="Layer 1">
    <g>
      <path class="cls-2" d="M152.8,60.07c-.29-4.82-.96-9.62-1.68-14.4-.86-5.71-2.33-11.27-4.78-16.54-4.36-9.38-11.17-16.37-20.33-21.14-8.45-4.39-17.55-6.37-26.96-7.02-6.52-.45-13.06-.74-19.59-.89-10.58-.25-21.14,.04-31.62,1.74-6.12,.99-12.14,2.35-17.85,4.87-5.06,2.23-9.65,5.17-13.61,9.03-5.83,5.67-9.59,12.56-11.81,20.32-1.54,5.37-2.27,10.9-3,16.41-.83,6.26-1.32,12.56-1.48,18.87-.2,7.87-.06,15.74,.77,23.56,.57,5.34,1.39,10.65,2.17,15.97,.84,5.76,2.7,11.19,5.56,16.27,3.59,6.38,8.42,11.64,14.44,15.8,5.7,3.94,12.02,6.37,18.81,7.65,6.39,1.2,12.83,1.9,19.32,2.15,5.47,.21,10.95,.31,18.55,.51,4.42-.18,10.96-.37,17.49-.74,6.83-.38,13.56-1.45,20.12-3.5,6.15-1.92,11.84-4.68,16.83-8.83,6.36-5.29,10.95-11.82,13.73-19.6,2.69-7.53,4.3-15.3,4.68-23.3,.31-6.5,.58-13.01,.64-19.52,.05-5.9-.02-11.8-.38-17.69Z"/>
      <g id="X3HpNm">
        <g>
          <path class="cls-1" d="M66.16,81.96c-2.05-1.16-3.98-2.25-5.91-3.34-.99-.56-2.01-1.08-2.98-1.68-.54-.33-.95-.33-1.51,0-2.67,1.57-5.39,3.08-8.07,4.64-.46,.27-.79,.28-1.26,.01-2.95-1.68-5.92-3.33-8.88-4.99-.38-.21-.72-.38-.71-.96,.07-3.16,.08-6.33,.11-9.49,0-.17,.04-.33,.08-.6,1.07,.59,2.07,1.13,3.05,1.69,2.04,1.14,4.08,2.31,6.14,3.42,.27,.14,.74,.16,1,.02,1.59-.87,3.16-1.78,4.7-2.74,.28-.17,.54-.61,.55-.93,.06-1.76,0-3.52,.05-5.27,.01-.55-.19-.84-.64-1.1-2.71-1.58-5.4-3.18-8.09-4.78-.27-.16-.53-.33-.9-.56,3.04-1.8,5.95-3.53,8.89-5.23,.19-.11,.57-.04,.78,.08,3.06,1.79,6.11,3.59,9.13,5.43,.27,.16,.46,.65,.47,.99,.04,3.13,.03,6.27,.06,9.4,0,.31,.12,.76,.33,.9,2.99,1.82,6.02,3.6,9.19,5.48v-11.4c1.48,.88,2.8,1.62,4.07,2.43,.57,.37,1,.37,1.58,0,1.27-.82,2.59-1.55,4.03-2.41v11.32c.35-.17,.59-.26,.8-.38,2.72-1.61,5.43-3.24,8.16-4.83,.46-.27,.64-.57,.64-1.11-.02-3.13,.02-6.27,0-9.4,0-.54,.17-.85,.64-1.12,2.96-1.73,5.89-3.49,8.86-5.21,.29-.17,.82-.23,1.08-.08,2.79,1.6,5.55,3.26,8.32,4.91,.1,.06,.18,.14,.35,.28-.31,.2-.57,.37-.84,.53-2.69,1.6-5.38,3.2-8.09,4.78-.46,.27-.65,.57-.64,1.11,.04,1.76,0,3.52,.05,5.27,.01,.32,.27,.75,.55,.93,1.52,.94,3.08,1.8,4.61,2.73,.45,.27,.77,.21,1.19-.02,2.98-1.69,5.96-3.36,9.06-5.1,.04,.35,.11,.61,.11,.88,.03,3.05,.08,6.09,.06,9.14,0,.32-.27,.77-.54,.93-3.04,1.76-6.1,3.48-9.18,5.17-.25,.14-.73,.08-1-.07-2.74-1.52-5.46-3.07-8.16-4.65-.52-.3-.89-.34-1.43-.03-2.66,1.53-5.36,3.01-8.04,4.51-.28,.15-.54,.34-.89,.56,3.29,1.9,6.49,3.75,9.84,5.68-1.46,.82-2.79,1.6-4.16,2.32-.6,.31-.83,.68-.8,1.36,.06,1.51,.02,3.02,.02,4.66-3.22-1.85-6.4-3.68-9.68-5.56-.03,.26-.07,.42-.07,.57,.01,3.19,.05,6.39,.04,9.58,0,.65,.23,.99,.78,1.3,2.67,1.52,5.32,3.09,7.99,4.6,.53,.3,.72,.63,.72,1.24,.01,3.37,.08,6.74,.08,10.11,0,.36-.22,.89-.51,1.05-2.76,1.6-5.55,3.15-8.33,4.71-.1,.06-.21,.09-.54,.22,0-1.45,0-2.78,0-4.1,0-2.08-.05-4.16-.03-6.24,0-.57-.15-.9-.66-1.18-1.54-.84-3.04-1.75-4.59-2.57-.29-.15-.8-.15-1.09,0-1.55,.82-3.05,1.74-4.6,2.57-.51,.28-.66,.61-.66,1.18,0,3.1-.05,6.21-.09,9.31,0,.29-.03,.58-.05,.97-.27-.12-.47-.19-.66-.3-2.66-1.48-5.31-2.99-7.98-4.45-.52-.28-.67-.62-.66-1.18,.06-3.4,.1-6.8,.11-10.19,0-.55,.2-.84,.66-1.1,2.7-1.54,5.37-3.11,8.07-4.64,.56-.31,.77-.67,.76-1.31-.01-3.13,.02-6.27,.03-9.4,0-.2-.02-.4-.04-.75-3.27,1.88-6.45,3.71-9.75,5.6,0-1.09-.14-2.08,.03-3.03,.33-1.93-.31-3.13-2.17-3.81-.94-.35-1.78-.97-2.77-1.52,3.34-1.93,6.55-3.78,9.87-5.7Z"/>
          <path class="cls-1" d="M62.17,43.31v7.85c-1.22-.71-2.3-1.34-3.37-1.97-1.89-1.12-3.77-2.25-5.67-3.35-.46-.26-.65-.57-.64-1.11,.03-2.17,.03-4.34,0-6.5,0-.55,.2-.83,.65-1.1,7.61-4.49,15.22-8.99,22.82-13.5,.46-.28,.81-.28,1.28,0,7.6,4.51,15.21,9.02,22.82,13.51,.45,.26,.67,.54,.66,1.1-.04,2.2,0,4.39-.03,6.59,0,.29-.17,.72-.39,.85-2.96,1.79-5.94,3.53-8.91,5.28-.07,.04-.16,.03-.35,.05v-7.67c-.41,.22-.69,.36-.95,.51-4.26,2.52-8.52,5.03-12.77,7.57-.53,.31-.9,.3-1.42-.01-4.24-2.54-8.51-5.05-12.77-7.56-.27-.16-.54-.3-.95-.53Z"/>
          <path class="cls-1" d="M109.6,83.27c3.23-1.82,6.32-3.56,9.42-5.26,.22-.12,.63-.06,.87,.07,1.97,1.1,3.93,2.21,5.85,3.39,.28,.17,.49,.7,.5,1.07,.09,4.95,.14,9.9,.19,14.85,.04,3.84,.05,7.67,.12,11.51,.01,.65-.21,.98-.77,1.29-7.67,4.28-15.32,8.58-22.97,12.89-.46,.26-.8,.29-1.27,.01-1.88-1.13-3.8-2.19-5.69-3.33-.27-.16-.57-.55-.57-.84-.07-3.37-.09-6.74-.11-10.11,0-.11,.03-.23,.07-.51,2.26,1.3,4.45,2.55,6.73,3.86,.03-.32,.07-.54,.06-.76-.05-5.04-.1-10.08-.19-15.12-.01-.64,.19-.99,.75-1.3,4.25-2.35,8.49-4.74,12.72-7.12,.33-.19,.65-.38,1.11-.65-2.28-1.32-4.46-2.59-6.83-3.95Z"/>
          <path class="cls-1" d="M43.59,83.27c-2.34,1.36-4.53,2.63-6.83,3.96,2.73,1.54,5.33,3,7.92,4.46,1.94,1.09,3.87,2.2,5.83,3.25,.61,.33,.86,.69,.84,1.42-.09,5.01-.13,10.02-.19,15.03,0,.2,0,.41,0,.81,2.29-1.31,4.48-2.57,6.76-3.88,.04,.31,.1,.52,.09,.73-.03,3.22-.07,6.44-.08,9.67,0,.54-.17,.84-.64,1.11-1.92,1.07-3.8,2.2-5.72,3.26-.28,.16-.8,.17-1.08,.02-7.67-4.27-15.32-8.59-22.99-12.87-.64-.36-.88-.74-.87-1.49,.12-8.58,.2-17.16,.25-25.75,0-.94,.28-1.48,1.12-1.92,1.79-.94,3.51-2.01,5.27-2.98,.25-.14,.7-.19,.94-.06,3.08,1.69,6.13,3.42,9.36,5.24Z"/>
        </g>
      </g>
    </g>
  </g>
</svg>