<?xml version="1.0" encoding="UTF-8"?>
<svg id="Layer_2" data-name="Layer 2" xmlns="http://www.w3.org/2000/svg" viewBox="0 0 426.52 77.1">
  <defs>
    <style>
      .cls-1 {
        fill: #0a62ab;
      }

      .cls-2 {
        fill: #2b2b2b;
        font-family: EASportsCoversSC-Bold, 'EA Sports Covers SC';
        font-size: 60px;
      }
    </style>
  </defs>
  <g id="Layer_1-2" data-name="Layer 1">
    <g>
      <text class="cls-2" transform="translate(88.58 58.83)"><tspan x="0" y="0">Machine Inc</tspan></text>
      <g id="X3HpNm">
        <g>
          <path class="cls-1" d="M30.34,44.96c-1.57-.89-3.05-1.73-4.54-2.56-.76-.43-1.55-.83-2.29-1.29-.41-.25-.73-.26-1.16,0-2.05,1.21-4.14,2.36-6.2,3.56-.36,.21-.61,.21-.97,0-2.26-1.29-4.55-2.56-6.82-3.83-.29-.16-.56-.29-.55-.74,.05-2.43,.06-4.86,.09-7.29,0-.13,.03-.25,.06-.46,.82,.45,1.59,.87,2.35,1.3,1.57,.88,3.13,1.77,4.71,2.63,.2,.11,.57,.12,.76,.01,1.22-.67,2.43-1.37,3.61-2.1,.21-.13,.41-.47,.42-.71,.04-1.35,0-2.7,.04-4.05,0-.42-.14-.64-.49-.85-2.08-1.21-4.14-2.44-6.21-3.67-.21-.12-.41-.26-.69-.43,2.33-1.38,4.57-2.71,6.83-4.02,.14-.08,.44-.03,.6,.06,2.35,1.37,4.69,2.76,7.01,4.17,.2,.12,.36,.5,.36,.76,.03,2.41,.02,4.81,.05,7.22,0,.24,.09,.59,.26,.69,2.3,1.4,4.62,2.76,7.06,4.21v-8.76c1.14,.68,2.15,1.24,3.13,1.87,.44,.28,.77,.28,1.21,0,.97-.63,1.99-1.19,3.1-1.85v8.7c.27-.13,.45-.2,.62-.3,2.09-1.24,4.17-2.49,6.26-3.71,.35-.21,.49-.44,.49-.85-.01-2.41,.01-4.81,0-7.22,0-.41,.13-.65,.49-.86,2.27-1.33,4.53-2.68,6.8-4,.22-.13,.63-.18,.83-.06,2.14,1.23,4.26,2.5,6.39,3.77,.07,.04,.14,.11,.27,.21-.24,.15-.44,.28-.65,.41-2.07,1.23-4.13,2.46-6.21,3.67-.35,.21-.5,.44-.49,.85,.03,1.35,0,2.7,.04,4.05,0,.25,.21,.58,.42,.71,1.16,.72,2.37,1.38,3.54,2.1,.34,.21,.59,.16,.91-.02,2.29-1.3,4.58-2.58,6.96-3.92,.03,.27,.08,.47,.08,.68,.03,2.34,.06,4.68,.05,7.02,0,.24-.2,.59-.42,.71-2.34,1.35-4.69,2.67-7.05,3.97-.19,.11-.56,.07-.77-.05-2.1-1.17-4.19-2.36-6.27-3.57-.4-.23-.69-.26-1.1-.03-2.05,1.18-4.11,2.31-6.17,3.47-.21,.12-.41,.26-.68,.43,2.53,1.46,4.99,2.88,7.55,4.36-1.12,.63-2.15,1.23-3.2,1.78-.46,.24-.64,.52-.62,1.05,.05,1.16,.01,2.32,.01,3.58-2.48-1.42-4.92-2.82-7.43-4.27-.03,.2-.06,.32-.06,.44,.01,2.45,.04,4.9,.03,7.36,0,.5,.18,.76,.6,1,2.05,1.16,4.08,2.37,6.14,3.53,.4,.23,.55,.49,.55,.95,0,2.59,.06,5.17,.06,7.76,0,.28-.17,.68-.39,.81-2.12,1.23-4.26,2.42-6.4,3.61-.08,.04-.16,.07-.42,.17,0-1.11,0-2.13,0-3.15,0-1.6-.04-3.19-.02-4.79,0-.43-.11-.69-.51-.91-1.19-.64-2.34-1.35-3.53-1.98-.22-.12-.62-.12-.84,0-1.19,.63-2.34,1.33-3.53,1.98-.39,.21-.51,.47-.51,.9,0,2.38-.04,4.77-.07,7.15,0,.22-.02,.44-.04,.74-.21-.09-.36-.15-.51-.23-2.04-1.14-4.08-2.29-6.13-3.41-.4-.22-.51-.48-.51-.91,.05-2.61,.08-5.22,.09-7.83,0-.42,.15-.65,.5-.84,2.07-1.18,4.12-2.39,6.2-3.56,.43-.24,.59-.51,.59-1-.01-2.41,.01-4.81,.02-7.22,0-.15-.02-.3-.03-.58-2.51,1.44-4.95,2.85-7.48,4.3,0-.83-.1-1.6,.02-2.32,.26-1.48-.24-2.4-1.66-2.93-.72-.27-1.37-.74-2.13-1.17,2.57-1.48,5.03-2.91,7.58-4.38Z"/>
          <path class="cls-1" d="M27.27,15.28v6.03c-.94-.55-1.77-1.03-2.59-1.51-1.45-.86-2.9-1.73-4.35-2.57-.35-.2-.5-.43-.49-.85,.02-1.66,.03-3.33,0-4.99,0-.42,.16-.64,.5-.84C26.18,7.08,32.03,3.63,37.86,.16c.36-.21,.62-.22,.98,0,5.84,3.47,11.68,6.92,17.53,10.37,.34,.2,.51,.42,.5,.84-.03,1.69,0,3.37-.03,5.06,0,.23-.13,.55-.3,.66-2.27,1.37-4.56,2.71-6.85,4.06-.05,.03-.12,.02-.27,.04v-5.89c-.31,.17-.53,.27-.73,.39-3.27,1.93-6.54,3.86-9.8,5.81-.4,.24-.69,.23-1.09,0-3.26-1.95-6.53-3.88-9.8-5.81-.2-.12-.41-.23-.73-.4Z"/>
          <path class="cls-1" d="M63.7,45.96c2.48-1.39,4.85-2.73,7.23-4.04,.17-.09,.48-.04,.67,.06,1.51,.84,3.02,1.7,4.5,2.6,.22,.13,.38,.54,.38,.82,.07,3.8,.11,7.6,.15,11.41,.03,2.95,.04,5.89,.09,8.84,0,.5-.16,.75-.59,.99-5.89,3.29-11.77,6.59-17.64,9.9-.36,.2-.61,.23-.97,0-1.45-.87-2.92-1.69-4.37-2.55-.21-.12-.43-.42-.44-.65-.05-2.59-.07-5.17-.09-7.76,0-.09,.02-.17,.05-.39,1.74,.99,3.42,1.96,5.17,2.96,.02-.25,.05-.41,.05-.58-.04-3.87-.08-7.74-.14-11.61,0-.5,.15-.76,.58-1,3.27-1.81,6.52-3.64,9.77-5.47,.25-.14,.5-.29,.85-.5-1.75-1.01-3.43-1.99-5.24-3.04Z"/>
          <path class="cls-1" d="M13.01,45.96c-1.8,1.04-3.48,2.02-5.25,3.04,2.1,1.18,4.09,2.3,6.09,3.42,1.49,.84,2.97,1.69,4.48,2.49,.47,.25,.66,.53,.65,1.09-.07,3.85-.1,7.69-.14,11.54,0,.16,0,.31,0,.62,1.76-1.01,3.44-1.97,5.19-2.98,.03,.24,.07,.4,.07,.56-.02,2.47-.05,4.95-.06,7.42,0,.41-.13,.65-.49,.85-1.47,.82-2.92,1.69-4.39,2.5-.22,.12-.61,.13-.83,.01-5.89-3.28-11.77-6.59-17.66-9.88-.49-.27-.68-.57-.67-1.14,.09-6.59,.16-13.18,.19-19.77,0-.72,.22-1.13,.86-1.47,1.37-.72,2.69-1.54,4.05-2.29,.2-.11,.54-.15,.72-.05,2.36,1.3,4.71,2.63,7.19,4.02Z"/>
        </g>
      </g>
    </g>
  </g>
</svg>